TITLE ""
FILE "2Q_t_1070-1086.mp3" MP3
  TRACK 01 AUDIO
    TITLE "2Q_t_1070-1086_01"
    INDEX 01 00:00:00
  TRACK 02 AUDIO
    TITLE "2Q_t_1070-1086_02"
    INDEX 01 00:00:16
  TRACK 03 AUDIO
    TITLE "2Q_t_1070-1086_03"
    INDEX 01 00:01:16
  TRACK 04 AUDIO
    TITLE "2Q_t_1070-1086_04"
    INDEX 01 00:02:03
  TRACK 05 AUDIO
    TITLE "2Q_t_1070-1086_05"
    INDEX 01 00:05:10
  TRACK 06 AUDIO
    TITLE "2Q_t_1070-1086_06"
    INDEX 01 00:05:53
  TRACK 07 AUDIO
    TITLE "2Q_t_1070-1086_07"
    INDEX 01 00:06:74
  TRACK 08 AUDIO
    TITLE "2Q_t_1070-1086_08"
    INDEX 01 00:07:46
  TRACK 09 AUDIO
    TITLE "2Q_t_1070-1086_09"
    INDEX 01 00:09:74
  TRACK 10 AUDIO
    TITLE "2Q_t_1070-1086_10"
    INDEX 01 00:10:44
  TRACK 11 AUDIO
    TITLE "2Q_t_1070-1086_11"
    INDEX 01 00:11:67
  TRACK 12 AUDIO
    TITLE "2Q_t_1070-1086_12"
    INDEX 01 00:12:41
  TRACK 13 AUDIO
    TITLE "2Q_t_1070-1086_13"
    INDEX 01 00:14:07
  TRACK 14 AUDIO
    TITLE "2Q_t_1070-1086_14"
    INDEX 01 00:14:50
  TRACK 15 AUDIO
    TITLE "2Q_t_1070-1086_15"
    INDEX 01 00:16:05
  TRACK 16 AUDIO
    TITLE "2Q_t_1070-1086_16"
    INDEX 01 00:16:56
  TRACK 17 AUDIO
    TITLE "2Q_t_1070-1086_17"
    INDEX 01 00:19:15
  TRACK 18 AUDIO
    TITLE "2Q_t_1070-1086_18"
    INDEX 01 00:19:61
  TRACK 19 AUDIO
    TITLE "2Q_t_1070-1086_19"
    INDEX 01 00:20:66
  TRACK 20 AUDIO
    TITLE "2Q_t_1070-1086_20"
    INDEX 01 00:21:46
  TRACK 21 AUDIO
    TITLE "2Q_t_1070-1086_21"
    INDEX 01 00:24:05
  TRACK 22 AUDIO
    TITLE "2Q_t_1070-1086_22"
    INDEX 01 00:24:52
  TRACK 23 AUDIO
    TITLE "2Q_t_1070-1086_23"
    INDEX 01 00:25:61
  TRACK 24 AUDIO
    TITLE "2Q_t_1070-1086_24"
    INDEX 01 00:26:33
  TRACK 25 AUDIO
    TITLE "2Q_t_1070-1086_25"
    INDEX 01 00:28:58
  TRACK 26 AUDIO
    TITLE "2Q_t_1070-1086_26"
    INDEX 01 00:29:28
  TRACK 27 AUDIO
    TITLE "2Q_t_1070-1086_27"
    INDEX 01 00:30:51
  TRACK 28 AUDIO
    TITLE "2Q_t_1070-1086_28"
    INDEX 01 00:31:25
  TRACK 29 AUDIO
    TITLE "2Q_t_1070-1086_29"
    INDEX 01 00:32:67
  TRACK 30 AUDIO
    TITLE "2Q_t_1070-1086_30"
    INDEX 01 00:33:37
  TRACK 31 AUDIO
    TITLE "2Q_t_1070-1086_31"
    INDEX 01 00:34:43
  TRACK 32 AUDIO
    TITLE "2Q_t_1070-1086_32"
    INDEX 01 00:35:16
  TRACK 33 AUDIO
    TITLE "2Q_t_1070-1086_33"
    INDEX 01 00:36:43
  TRACK 34 AUDIO
    TITLE "2Q_t_1070-1086_34"
    INDEX 01 00:37:13
  TRACK 35 AUDIO
    TITLE "2Q_t_1070-1086_35"
    INDEX 01 00:38:46
  TRACK 36 AUDIO
    TITLE "2Q_t_1070-1086_36"
    INDEX 01 00:39:20
  TRACK 37 AUDIO
    TITLE "2Q_t_1070-1086_37"
    INDEX 01 00:40:33
  TRACK 38 AUDIO
    TITLE "2Q_t_1070-1086_38"
    INDEX 01 00:41:03
  TRACK 39 AUDIO
    TITLE "2Q_t_1070-1086_39"
    INDEX 01 00:42:09
  TRACK 40 AUDIO
    TITLE "2Q_t_1070-1086_40"
    INDEX 01 00:42:56
  TRACK 41 AUDIO
    TITLE "2Q_t_1070-1086_41"
    INDEX 01 00:44:02
  TRACK 42 AUDIO
    TITLE "2Q_t_1070-1086_42"
    INDEX 01 00:44:47
  TRACK 43 AUDIO
    TITLE "2Q_t_1070-1086_43"
    INDEX 01 00:45:66
  TRACK 44 AUDIO
    TITLE "2Q_t_1070-1086_44"
    INDEX 01 00:46:44
  TRACK 45 AUDIO
    TITLE "2Q_t_1070-1086_45"
    INDEX 01 00:49:05
  TRACK 46 AUDIO
    TITLE "2Q_t_1070-1086_46"
    INDEX 01 00:49:50
  TRACK 47 AUDIO
    TITLE "2Q_t_1070-1086_47"
    INDEX 01 00:50:55
  TRACK 48 AUDIO
    TITLE "2Q_t_1070-1086_48"
    INDEX 01 00:51:33
  TRACK 49 AUDIO
    TITLE "2Q_t_1070-1086_49"
    INDEX 01 00:54:30
  TRACK 50 AUDIO
    TITLE "2Q_t_1070-1086_50"
    INDEX 01 00:54:75
  TRACK 51 AUDIO
    TITLE "2Q_t_1070-1086_51"
    INDEX 01 00:56:17
  TRACK 52 AUDIO
    TITLE "2Q_t_1070-1086_52"
    INDEX 01 00:56:64
  TRACK 53 AUDIO
    TITLE "2Q_t_1070-1086_53"
    INDEX 01 00:58:10
  TRACK 54 AUDIO
    TITLE "2Q_t_1070-1086_54"
    INDEX 01 00:58:57
  TRACK 55 AUDIO
    TITLE "2Q_t_1070-1086_55"
    INDEX 01 00:59:60
  TRACK 56 AUDIO
    TITLE "2Q_t_1070-1086_56"
    INDEX 01 01:00:34
  TRACK 57 AUDIO
    TITLE "2Q_t_1070-1086_57"
    INDEX 01 01:03:60
  TRACK 58 AUDIO
    TITLE "2Q_t_1070-1086_58"
    INDEX 01 01:04:30
  TRACK 59 AUDIO
    TITLE "2Q_t_1070-1086_59"
    INDEX 01 01:05:53
  TRACK 60 AUDIO
    TITLE "2Q_t_1070-1086_60"
    INDEX 01 01:06:25
  TRACK 61 AUDIO
    TITLE "2Q_t_1070-1086_61"
    INDEX 01 01:09:15
  TRACK 62 AUDIO
    TITLE "2Q_t_1070-1086_62"
    INDEX 01 01:09:60
  TRACK 63 AUDIO
    TITLE "2Q_t_1070-1086_63"
    INDEX 01 01:10:64
  TRACK 64 AUDIO
    TITLE "2Q_t_1070-1086_64"
    INDEX 01 01:11:48
  TRACK 65 AUDIO
    TITLE "2Q_t_1070-1086_65"
    INDEX 01 01:13:58
  TRACK 66 AUDIO
    TITLE "2Q_t_1070-1086_66"
    INDEX 01 01:14:28
  TRACK 67 AUDIO
    TITLE "2Q_t_1070-1086_67"
    INDEX 01 01:15:34
  TRACK 68 AUDIO
    TITLE "2Q_t_1070-1086_68"
    INDEX 01 01:16:04
  TRACK 69 AUDIO
    TITLE "2Q_t_1070-1086_69"
    INDEX 01 01:17:36
  TRACK 70 AUDIO
    TITLE "2Q_t_1070-1086_70"
    INDEX 01 01:18:08
  TRACK 71 AUDIO
    TITLE "2Q_t_1070-1086_71"
    INDEX 01 01:19:43
